<svg width="512" height="343" viewBox="0 0 512 343" fill="none" xmlns="http://www.w3.org/2000/svg">
<circle cx="301" cy="146" r="50.5" stroke="#C8B6D9" stroke-width="3"/>
<circle cx="300.5" cy="145.5" r="37" stroke="#C8B6D9" stroke-width="3"/>
<circle cx="300.5" cy="145.5" r="22" stroke="#C8B6D9" stroke-width="3"/>
<circle cx="291.5" cy="162.5" r="8" stroke="#C8B6D9" stroke-width="3"/>
<circle cx="352.5" cy="153.5" r="8" stroke="#C8B6D9" stroke-width="3"/>
<circle cx="265" cy="107" r="10.5" stroke="#C8B6D9" stroke-width="3"/>
<path d="M301.5 62.5C347.898 62.5 385.5 99.666 385.5 145.5C385.5 191.334 347.898 228.5 301.5 228.5C255.102 228.5 217.5 191.334 217.5 145.5C217.5 99.666 255.102 62.5 301.5 62.5Z" stroke="#354024"/>
<path d="M140 143.155H186H219C229.5 139.5 229 133.655 229.5 128.155C230 122.655 224 113.155 219 112.155C214 111.155 203.191 115.029 202 122.655" stroke="#A9C7D6" stroke-width="3" stroke-linecap="round"/>
<path d="M128 134H161.397H185.356C192.979 131.419 192.616 127.292 192.979 123.408C193.342 119.524 188.986 112.816 185.356 112.11C181.725 111.403 173.878 114.139 173.013 119.524" stroke="#A9C7D6" stroke-width="3" stroke-linecap="round"/>
<path d="M170 154H196.204H215.002C220.983 156.229 220.698 159.794 220.983 163.148C221.268 166.502 217.85 172.296 215.002 172.905C212.154 173.515 205.996 171.153 205.318 166.502" stroke="#A9C7D6" stroke-width="3" stroke-linecap="round"/>
<path d="M182.5 54.5C228.898 54.5 266.5 91.666 266.5 137.5C266.5 183.334 228.898 220.5 182.5 220.5C136.102 220.5 98.5 183.334 98.5 137.5C98.5 91.666 136.102 54.5 182.5 54.5Z" stroke="#354024"/>
<path d="M219.388 245.156L223.528 235.4H225.238L219.388 248.63L213.538 235.4H215.248L219.388 245.156ZM237.164 244.22L237.704 242.78H243.284L243.824 244.22H237.164ZM240.458 238.244L238.334 243.248L238.19 243.572L236.318 248H234.608L240.458 234.77L246.308 248H244.598L242.762 243.68L242.618 243.32L240.458 238.244ZM256.295 236.84V235.4H264.305V236.84H261.065V248H259.535V236.84H256.295ZM276.315 244.22L276.855 242.78H282.435L282.975 244.22H276.315ZM279.609 238.244L277.485 243.248L277.341 243.572L275.469 248H273.759L279.609 234.77L285.459 248H283.749L281.913 243.68L281.769 243.32L279.609 238.244Z" fill="black"/>
</svg>
